<?xml version="1.0" encoding="utf-8"?>
<!-- Generator: Adobe Illustrator 21.1.0, SVG Export Plug-In . SVG Version: 6.00 Build 0)  -->
<svg version="1.1" id="Layer_1" xmlns="http://www.w3.org/2000/svg" xmlns:xlink="http://www.w3.org/1999/xlink" x="0px" y="0px"
	 viewBox="0 0 230.9 75" style="enable-background:new 0 0 230.9 75;" xml:space="preserve">
<style type="text/css">
	.st0{fill:#FFFFFF;}
</style>
<g>
	<g>
		<path class="st0" d="M21,8.1l0.5,1.1l0.3-0.1c0.4-0.2,0.5-0.5,0.3-0.8C22,7.9,21.7,7.8,21.2,8L21,8.1z"/>
		<path class="st0" d="M17.8,10.2c0.3-0.2,0.3-0.6,0.1-0.9c-0.2-0.3-0.6-0.3-0.9-0.1l-0.2,0.2l0.8,1L17.8,10.2z"/>
		<path class="st0" d="M21.2,7.7c0.2-0.1,0.3-0.1,0.3-0.1c0-0.1,0-0.3-0.1-0.5c-0.1-0.3-0.4-0.4-0.8-0.2c-0.1,0-0.1,0.1-0.2,0.1
			l0.4,0.9L21.2,7.7z"/>
		<path class="st0" d="M37.2,10c0.4-0.6,0.5-1.3,0-1.6c-0.4-0.3-1.1,0-1.5,0.6c-0.4,0.6-0.5,1.3,0,1.6C36.2,10.9,36.8,10.6,37.2,10z
			"/>
		<path class="st0" d="M24.5,8.2c0.5-0.1,0.7-0.8,0.6-1.5c-0.2-0.7-0.7-1.2-1.2-1.1c-0.5,0.1-0.7,0.8-0.6,1.5
			C23.5,7.9,24,8.3,24.5,8.2z"/>
		<polygon class="st0" points="12.3,15.1 12.1,15 12.3,15.2 13,16.1 13.5,15.4 		"/>
		<g>
			<polygon class="st0" points="32,66.7 32,66.9 32,68.1 32.9,67.9 32.1,66.9 			"/>
			<path class="st0" d="M35.7,66.1c-0.3-0.6-0.9-1-1.4-0.7c-0.5,0.3-0.5,1-0.2,1.6c0.3,0.6,0.9,1,1.4,0.7
				C36,67.4,36.1,66.7,35.7,66.1z"/>
			<polygon class="st0" points="41.4,59.3 41.5,59.5 42.2,60.5 42.7,59.8 41.6,59.4 			"/>
			<polygon class="st0" points="26.4,67.4 26.4,67.6 25.9,68.7 26.8,68.8 26.5,67.6 			"/>
			<path class="st0" d="M45.2,14.5c-2.1-3.3-4.6-5.9-7.4-7.7c-3.2-2.1-6.6-3.2-10.2-3.2c-3.6,0-7,1.1-10.2,3.2
				c-2.8,1.9-5.3,4.5-7.4,7.7c-4,6.2-6.2,14.4-6.2,23c0,8.6,2.2,16.8,6.2,23c2.1,3.3,4.6,5.9,7.4,7.7c3.2,2.1,6.6,3.2,10.2,3.2
				c3.6,0,7-1.1,10.2-3.2c2.8-1.9,5.3-4.5,7.4-7.7c4-6.2,6.2-14.4,6.2-23C51.3,28.9,49.2,20.7,45.2,14.5z M45.2,17.4l0.2,0.4
				l-2.5,1.3l-0.3,0.2L42.4,19l2.5-1.3L45.2,17.4z M44.1,15.5l0.2,0.4l-2.5,1.5l0.6,1l-0.4,0.1l-0.8-1.3l2.4-1.4L44.1,15.5z
				 M43.3,14.2l0.3,0.4l-2.4,1.6l-0.3,0.2l-0.3-0.4l2.3-1.6L43.3,14.2z M42.4,12.9c0.2,0.3,0.3,0.6,0.3,0.7l-0.4,0.1
				c0,0,0-0.4-0.2-0.7c-0.1-0.2-0.4-0.3-0.6-0.1c-0.6,0.4,0.3,1.4-0.5,2c-0.4,0.3-1,0.3-1.3-0.1c-0.3-0.4-0.2-0.9-0.2-0.9
				c0,0,0.4-0.2,0.4-0.2s-0.1,0.5,0.2,0.9c0.2,0.2,0.5,0.3,0.7,0.1c0.5-0.4-0.3-1.5,0.4-2C41.5,12.4,42.1,12.5,42.4,12.9z M39.3,9.6
				l0.2,0.2l-0.2,2.6l-0.1,0.4l1.3-1.4l0.3-0.4l0.3,0.3l-2,2l-0.2,0.3l-0.2-0.2l0.2-2.7l0.1-0.4L37.6,12l-0.2,0.3L37.1,12l2-2
				L39.3,9.6z M37.5,8.1c0.7,0.5,0.7,1.3,0.1,2.1c-0.5,0.8-1.5,1.1-2.1,0.6c-0.7-0.5-0.7-1.4-0.1-2.1C35.9,7.9,36.8,7.7,37.5,8.1z
				 M32.6,7.5c0.4-0.9,1.3-1.3,2.1-1c0.3,0.2,0.6,0.4,0.7,0.8L35,7.5c-0.1-0.3-0.3-0.5-0.5-0.7C33.9,6.6,33.3,7,33,7.6
				c-0.3,0.7-0.1,1.4,0.4,1.6c0.4,0.2,1,0,1,0l-0.1,0.4c0,0-0.6,0.2-1.2-0.1C32.5,9.2,32.1,8.4,32.6,7.5z M30.4,5.6l0-0.5l0.5,0.1
				l-0.6,2.8l0,0.4l-0.5-0.1L30.4,5.6z M26.8,4.9L28.4,7l0.2,0.3l0-1.9l-0.1-0.5l0.4,0l0,2.9l0,0.4l-0.2,0l-1.7-2.1l-0.2-0.3l0,2
				l0,0.4l-0.4,0l0-2.8l-0.1-0.5L26.8,4.9z M23.8,5.3c0.9-0.2,1.5,0.4,1.7,1.3c0.2,0.9-0.2,1.8-1,2c-0.8,0.2-1.5-0.4-1.7-1.3
				C22.7,6.4,23.1,5.5,23.8,5.3z M20.5,6.5c0.5-0.3,1-0.2,1.2,0.3c0.1,0.2,0,0.6,0,0.8c0.3,0,0.6,0.1,0.8,0.5c0.2,0.5,0.2,1-0.6,1.4
				l-0.6,0.3l-1.2-2.5l-0.2-0.4L20.5,6.5z M16.9,8.8c0.4-0.3,1-0.4,1.4,0.2c0.2,0.3,0.3,0.7,0.1,1.1l1.6,0.5l-0.4,0.3l-1.4-0.5
				c0,0-0.1,0.1-0.3,0.2l0.5,0.7l0.3,0.3l-0.4,0.3l-1.7-2.2l-0.3-0.3L16.9,8.8z M15.4,10l0.3,0.3l-0.8,0.8l0.7,0.7l0.7-0.7l0.2,0.3
				L15.9,12l0.8,0.8l0.8-0.8l0.2,0.3l-1,1l-2-2l-0.4-0.3L15.4,10z M13.8,11.6l0.3,0.2l-0.6,0.8l1.9,1.6l0.3,0.2l-0.3,0.4L13.2,13
				l-0.6,0.8l-0.3-0.2L13.8,11.6z M11.6,14.4l2.8,0.8l0.6,0.1l-0.3,0.4l-0.9-0.2l-0.6,0.9l0.5,0.7l-0.2,0.3l-2-2.8L11.6,14.4z
				 M7.3,38.4l-0.5,1l-0.5-1l-1.1-0.2L6,37.4l-0.2-1.1l1,0.5l1-0.5l-0.2,1.1l0.8,0.8L7.3,38.4z M9,19.2l0.1-0.3l2.5-0.3l-1.3-2.1
				l0.1-0.2l2.5,1.3l0.3,0.1l-0.2,0.4l-2-1l0.2,0.3l1,1.6l-1.9,0.2l-0.4,0l1.7,0.9l0.3,0.1l-0.2,0.4l-2.5-1.3L9,19.2z M10.1,58.2
				c-0.3-0.5-0.1-0.9-0.1-0.9c0,0,0.4-0.2,0.4-0.2s-0.2,0.5,0,0.9c0.1,0.2,0.4,0.3,0.7,0.2c0.6-0.3-0.1-1.5,0.7-1.9
				c0.4-0.2,1-0.1,1.2,0.3c0.2,0.3,0.2,0.6,0.2,0.8l-0.4,0.1c0,0,0.1-0.4-0.1-0.7c-0.1-0.2-0.4-0.3-0.6-0.2
				c-0.6,0.3,0.1,1.5-0.8,1.9C10.9,58.8,10.3,58.7,10.1,58.2z M11.6,60.7c-0.6-0.9,0.3-1.6,0.4-1.6l1.3-0.9l0.3-0.3l0.3,0.4
				l-1.7,1.2c-0.4,0.3-0.6,0.8-0.3,1.2c0.3,0.4,0.8,0.4,1.2,0.1l1.3-0.9l0.3-0.3l0.3,0.4l-1.6,1.1C12.8,61.4,12.1,61.3,11.6,60.7z
				 M14.2,62l-0.6,0.6l-0.2,0.3l-0.3-0.3l2.1-1.8l0.3-0.3l0.6,0.6c0.3,0.4,0.4,1-0.1,1.4c-0.4,0.4-1.1,0.3-1.6-0.2L14.2,62z
				 M16,65.5l-1.1-1l1.9-2.1L17,62l1.2,1.1l-0.2,0.3l-0.8-0.7l-0.7,0.8l0.7,0.7l-0.3,0.2l-0.6-0.6l-0.7,0.8l0.9,0.8L16,65.5z
				 M19.6,65.3c-0.2,0.3-0.6,0.5-1,0.4l0,1.6l-0.4-0.3l0-1.5c0,0-0.1-0.1-0.3-0.2l-0.5,0.7l-0.2,0.3l-0.4-0.3l1.6-2.3l0.2-0.4
				l0.7,0.5C19.7,64.2,20,64.8,19.6,65.3z M22.4,69.2L21.9,69l0-0.9l-1-0.4l-0.6,0.7L20,68.2l2.3-2.5l0.3,0l-0.2,2.9L22.4,69.2z
				 M24.4,69.7L23,69.4l0.7-2.7l0-0.5l0.5,0.1l-0.7,2.8l1.2,0.3L24.4,69.7z M27.1,70l-0.2-0.9L25.7,69l-0.4,0.8l-0.4,0l1.4-3.1
				l0.3,0l0.7,2.8l0.2,0.6L27.1,70z M28.9,70c-0.5,0-0.9-0.3-0.9-0.3c0,0,0-0.4,0-0.4s0.4,0.4,0.8,0.4c0.3,0,0.5-0.2,0.5-0.6
				c-0.1-0.6-1.4-0.6-1.4-1.4c0-0.5,0.3-0.9,0.8-1c0.4,0,0.6,0.1,0.8,0.2l-0.1,0.4c0,0-0.3-0.2-0.7-0.2c-0.2,0-0.4,0.2-0.4,0.5
				c0.1,0.7,1.3,0.5,1.4,1.5C29.8,69.5,29.5,70,28.9,70z M33.6,68.9l-0.5-0.7L32,68.5l0,0.9l-0.4,0.1l0.1-3.4L32,66l1.8,2.3l0.4,0.4
				L33.6,68.9z M35.8,68.3L35.6,68c-0.7,0.3-1.4-0.1-1.9-0.9c-0.4-0.8-0.3-1.8,0.4-2.2c0.8-0.4,1.5,0,2,0.8c0.4,0.8,0.3,1.7-0.3,2.1
				l0.9-0.1l0,0.4L35.8,68.3z M38.6,66.1c-0.9,0.7-1.6-0.2-1.6-0.3l-1-1.3l-0.3-0.3L36,64l1.3,1.6c0.3,0.4,0.8,0.5,1.2,0.2
				c0.4-0.3,0.4-0.8,0-1.2l-0.9-1.2L37.1,63l0.4-0.3l1.2,1.5C39.2,64.9,39.1,65.7,38.6,66.1z M40.3,64.5l-2-2L38,62.3l0.3-0.3l2,2
				l0.3,0.2L40.3,64.5z M41.3,63.5l-2.1-1.8l-0.4-0.2l0.3-0.4l2.2,1.9l0.8-0.9l0.2,0.3L41.3,63.5z M43.9,60.1l-0.9-0.3l-0.7,0.9
				l0.5,0.7l-0.2,0.3l-2-2.8l0.1-0.3l2.8,0.8l0.6,0.1L43.9,60.1z M44.5,59.2l-2.4-1.4l-0.4-0.2l0.8-1.4l0.3,0.2l-0.6,1l0.9,0.5
				l0.5-0.8l0.3,0.3l-0.4,0.8l1,0.6l0.6-1l0.3,0.3L44.5,59.2z M27.6,65.6c-9.9,0-18-12.6-18-28.1c0-15.5,8-28.1,18-28.1
				c9.9,0,18,12.6,18,28.1C45.5,53,37.5,65.6,27.6,65.6z M43.5,20.4l-0.3,0.2L43,20.1l2.5-1.2l0.4-0.2l0.2,0.4L43.5,20.4z
				 M48.3,39.4l-0.5-1l-1.1-0.2l0.8-0.8l-0.2-1.1l1,0.5l1-0.5l-0.2,1.1l0.8,0.8l-1.1,0.1L48.3,39.4z"/>
			<path class="st0" d="M19,64.2L18.8,64L18,65.1l0.2,0.2c0.3,0.2,0.7,0.1,0.9-0.2C19.4,64.7,19.3,64.4,19,64.2z"/>
			<polygon class="st0" points="21.2,67.4 22,67.7 22.1,66.5 22.1,66.3 22,66.5 			"/>
			<path class="st0" d="M15.7,61.1l-0.2-0.2l-1,0.9l0.2,0.2c0.2,0.3,0.6,0.3,0.9,0C16,61.7,15.9,61.4,15.7,61.1z"/>
		</g>
		<path class="st0" d="M31.1,35.1c0,0,1.4,0.6,1.2,1.3c-0.2,0.8-0.9,1.5-0.9,1.5s1-0.9,1.1-1.8C32.7,35.7,31.5,35.1,31.1,35.1z
			 M35.4,37.8c0-0.1-0.1,0-0.1,0c-0.6-1.2-1.6-0.6-1.6-0.6c0.2-0.1,0.3-0.1,0.5,0c0,0.1-0.2,0.5,0.2,0.6c-0.3,0-0.5-0.1-0.5-0.1
			C34.6,38.2,35.4,37.8,35.4,37.8z M34.9,37.4c0.1,0.1,0.3,0.2,0.4,0.3c-0.2,0.1-0.5,0.1-0.7,0.1C34.8,37.8,34.9,37.4,34.9,37.4z
			 M36,37.2c0,0-0.4-1.1-1.4-1.1c-0.8,0-1,0.7-1,0.7c0.2-0.2,0.6-0.4,1-0.4C35.6,36.4,36,37.2,36,37.2z M32.9,38.4
			c0,0-0.3,0.4-0.4,0.2c-0.3-0.3-0.8-0.1-0.8-0.1s0.5,0,0.8,0.2C32.8,39,33,38.7,32.9,38.4z M32.4,40.2c0,0.3,0.1-0.1,0.1-0.1
			S32.5,40.2,32.4,40.2c0-0.1-0.4-0.5-0.7-0.5c-0.3,0-0.4-0.1-0.4-0.1c-0.2-0.1-0.6,0-0.6,0s-0.1-0.2-0.1,0c0,0.1-0.1,0.2-0.1,0.2
			c0.3-0.3,0.7,0,0.6-0.1c0,0,0.2,0.1,0.3,0.1C32.1,39.8,32.4,40.1,32.4,40.2z M31.1,40.1c0.3,0.3,0.7,0.1,0.7,0.1
			C31.3,40.1,31.1,40.1,31.1,40.1z M31.6,38.5c0,0-0.3-0.2-0.2-0.4C31.4,38.1,31,38.5,31.6,38.5z M31.2,36.9c0.2,0,0.4,0,0.6-0.1
			c0,0-0.2,0-0.2-0.1c0.1-0.2,0.3,0,0.3,0s0-0.8-0.9-0.6c-0.1,0-0.4,0.1-0.3,0.1c0,0,0.4-0.1,0.4,0c0,0-0.1,0-0.2,0.1
			c-0.1,0.1,0,0.2,0,0.3c-0.1-0.1-0.3-0.3-0.3-0.3C30.7,36.8,31.1,36.9,31.2,36.9z M30.5,36.1c0.3-1.5,1.4-2.7,1.4-2.7
			s-0.9,0.4-1.5,2.7c-0.6,2-3.9,4.9-5.4,4.9c-0.4,0-0.9-0.2-1.2-0.8c0,0,0.1,0.5,0.4,0.7c-1.9-0.4-2.7-2.6-3.1-3.1
			c0,0,1.3,3.4,3.9,3.4c0,0,0,0,0.1,0c-0.7,0.1-1.9,1.2-2,2.3c-0.1,0.6,0.3,0.8,0.3,0.8c0.2-2.7,1.9-3.2,1.9-3.2c0,0,0,0,0,0
			c0.9-0.1,1.9-1,2.3-1.3C29.1,38.6,30.2,37.4,30.5,36.1z M21.9,47.2c0,0,0.9,0.2,1.7,1.2c0.1,0.1,0.3-0.1,0.1-0.3
			C22.6,47,21.9,47.2,21.9,47.2z M26.9,39.1c0,0-0.7,0-1.2-0.4C25.6,38.7,26,39.4,26.9,39.1z M27.4,38.8
			C27.4,38.8,27.4,38.8,27.4,38.8c0-0.1,0.1-0.2,0.1-0.2C27.4,38.7,27.4,38.8,27.4,38.8z M24.7,45.6C24.3,45.6,24,46,24,46
			c-0.9-0.2-0.8,0.4-1,0.4c-0.6,0-1.1,0.3-1.1,0.3c1.4-0.3,2.3,0.8,2.3,0.8c0.5,0.2-0.7-0.9-0.7-0.9s-0.4-0.4,0.2-0.5
			c0.9-0.1,1.5,1.3,1.8,1.4c0.3,0.1-0.8-1.2-1-1.4C24.2,45.9,24.7,45.6,24.7,45.6z M27.1,38.6c-0.1-0.1,0,0-0.3-0.2
			c-0.1,0-0.3-0.1-0.3-0.1c-0.2-0.2-0.4,0-1.3-0.2c0-0.1,0-0.1,0-0.1c0,0,0,0,0,0.1c0,0.1-0.1,0.1-0.1,0.2c0,0,0.1,0,0.1-0.1
			c0,0,0,0,0-0.1c0.2,0,1,0.3,1.4,0.5c0.4,0.2,0.7,0.2,0.8,0.2C27.4,38.8,27.2,38.7,27.1,38.6z M15.2,36.1c2-6.3,9.1-13.6,15.8-9.1
			c2,1.3,2.7,2.8,2.7,3.7c0,0,0.5-0.5,0.5-2.1c0,0,3.8-0.4,6,1.9c4.2,4.2,1.2,9.5-0.4,10.7c-0.1,0-0.2,0.2,0,0.4
			c0.3,0.5,0.5,1.1,0.5,1.1c2-1.5,3.5-4.2,3.5-7c0-4.1-2.8-7.6-7-8.3c-1.7-5.6-6.2-9.2-12-9.2c-6.7,0-12.3,5.4-12.4,12.4
			c0,1.8,0.5,4.4,1.4,5.6c0,0-1.1,9.1,0.8,14.3c0,0-0.5-3.1-0.6-6.1C13.8,41.9,14.3,39,15.2,36.1z M17.4,23.3
			c0.1-0.1,0.1-0.1,0.2-0.2c1-1,2.2-1.8,3.6-2.3c1.1-0.4,2.2-0.6,3.4-0.6c0.1,0,0.1,0,0.2,0c4.5,0.1,7.1,1.8,8.7,3.6
			c0.8,0.9,1.3,1.8,1.7,2.5c0.2,0.4,0.3,0.8,0.4,1.1c-0.6,0-1.4,0.1-1.8,0.1c-1.6-3.2-4.8-5.4-8.6-5.4c-3.6,0-6.7,1.6-9,6.4
			c-0.6,1.3-1.1,2.7-1.6,4.2c-0.1-0.3-0.2-0.7-0.2-1.5c0-0.1,0-0.2,0-0.3C14.4,27.9,15.5,25.2,17.4,23.3z M26.2,34c0,0-0.1,0-0.2,0
			c0.2,0,0.2-0.4,0.2-0.4l0.4,0.1c-0.4-0.6-2-0.7-2-0.7c0.7,0.2,1,0.4,1,0.4s-0.1,0.2,0,0.4c-0.4-0.2-0.8-0.6-0.8-0.6
			C25.5,34.1,26.2,34,26.2,34z M39.5,39.6c2.2-1.6,2-8.8-6.2-7.4c0,0,7.2-0.9,4.1,5.8c0,0,2-0.5,0.9,1.7c0,0-0.6,0.8-0.4,2.2
			C38,41.9,38.4,40.4,39.5,39.6z M15.1,40.6c4.5-0.7,3.7-5.2,3.7-5.2c-0.1,0.4-0.2,0.8-0.3,1.2c0,0-0.1,0-0.1,0
			c0-0.1-0.1-0.2-0.1-0.4c-0.1-0.5,0.4-0.4,0.4-0.4c0-0.3-0.2-0.3-0.2-0.3c-0.8,0-0.4,0.8-0.1,1.2c-0.5,0.1-1.4,0.6-1.2,1.1
			c0,0-0.9,0.5-0.6,0.9c0,0-0.6,0.3-0.3,0.8c0,0-0.3,0.4,0.1,0.4c0,0,0,0,0,0C15.6,40.3,15.1,40.6,15.1,40.6z M17.2,37.5
			c0.2-0.4,1.5-0.7,1.2-0.5C18,37.3,18,37,18,37.1c0,0.2,0.3,0,0.3,0C18,37.7,17,37.8,17.2,37.5z M17,39.1c-0.2,0.1-1,0.3-0.9,0
			c0.1-0.4,1.1-0.6,1.1-0.6c-0.5,0.1-0.8,0-0.7-0.2c0-0.2,0.7-0.5,1.2-0.6c0.4,0,1,0.1-0.2,0.7C17.5,38.4,18.4,38.4,17,39.1
			c0,0,0.7,0,0.4,0.3c-0.3,0.3-0.6,0.4-0.8,0.4C16.4,39.8,15.4,39.7,17,39.1z M38.2,38.5c-0.3-0.1-0.5,0-0.5,0.2c0,0.1,0,0.2,0,0.2
			l0.1-0.1c0,0,0-0.3,0.3-0.2c0.3,0.1-0.2,0.9-0.2,0.9C38.1,39.3,38.7,38.7,38.2,38.5z M31.9,28c-7-5.3-13.5,3-14.4,5.3
			c-0.8,2.3,1.3,2,1.3,2s0-3.5,2.1-3.7c2.1-0.3,0.5-1.1,2.8-1.5c2.4-0.4,1-1.8,2.2-2.2c1.9-0.8,4.6,0,5.7,0.2c0,0.3,0,0.9,0.5,1.6
			c0.7,1.1,0,3.4,0,3.4C34.8,31.4,32.8,28.7,31.9,28z M31.5,18.1c5.5,2.8,6.4,8,6.4,8s3.3,0,4.8,2.3c-2.3-9.5-8.2-16.3-15.1-16.3
			c-4.6,0-8.7,3-11.6,7.7C16,19.9,23.1,13.8,31.5,18.1z M13.2,36.5c0,0-1.3-2.4-1.2-5.7c0,0-2.6,10.5,2.4,21.5
			C14.5,52.3,11.6,44.6,13.2,36.5z M26.4,47.3c0.9,2.5,1.8,2.9,1.8,2.9c0.6-6.3-4.1-7.6-4.1-7.6s0.7,0.4,1.8,1.5
			c0.8,0.8-0.8,1.5-0.8,1.5S26,46.1,26.4,47.3z M37.2,39.9c-0.1-0.1-0.1,0.3-0.1,0.3c0.2,0.2,0.6-0.3,0.6-0.3
			C37.7,39.9,37.5,40.1,37.2,39.9z M37.8,39.2C37.8,39.2,37.8,39.3,37.8,39.2c0.2-0.2-0.1-0.3-0.1-0.3s-0.2,0,0,0.1
			C37.9,39,37.8,39.2,37.8,39.2z M27.2,38.3c-0.3,0-0.6-0.2-0.6-0.2C26.8,38.5,27.2,38.3,27.2,38.3z M32.5,41.5
			C32.5,41.5,32.5,41.5,32.5,41.5C32.5,41.5,32.5,41.5,32.5,41.5z M37.2,45.6c0-0.3,0.1-0.5,0.1-0.5c-9,4.1-8-4.7-8-4.7
			C28,49.9,37.2,45.6,37.2,45.6z M37.7,40.4c-0.6,0.3-0.8,0.3-0.9,0.1c-0.1-0.1-0.2-0.1-0.2,0c-0.4,1.8-4.5,1.3-4.8,1.3
			c0.2,0,0.5-0.1,0.7-0.4c-0.1,0.1-0.4,0.3-0.9,0.3c-0.5,0-0.8-0.1-1.1-0.4c-0.2-0.2-0.4-0.5-0.4-1c0-0.8,0-0.9-0.3-1.4
			c-0.3-0.5-0.2-1.2-0.2-1.2s-0.3,0.8,0.2,1.4c0.2,0.3,0.3,1.3,0.3,1.3s0,0.9,1.1,1.4c0.4,0.2,0.6,1,0.9,1.4c0.4,0.6,2,1.1,5.2-0.2
			c0,0-2.1,0.8-4,0.6c-1.1-0.2-1.3-0.8-1.4-1.9C36,42.7,37.7,40.4,37.7,40.4z M21.6,53.8c1.4-0.8,3.9-0.2,3.9-0.2
			c-1.8-1-2.7-3.2-2.7-3.2c-3.3-0.3-4.6-2.2-4.6-2.2c-2-3-3.9-2.7-3.9-2.5c0.3,3.5,0.5,7.2,2.7,10.7c2.9,3.9,6.6,6.3,10.7,6.3
			c3.1,0,6-1.4,8.5-3.8c-5.1-0.3-7.5-2.5-8.9-3.6C25.2,53.6,21.6,53.8,21.6,53.8z M41.5,42.4c-0.8,0.8-0.6,1.1,0.2,1.9
			c0.6,0.5,1,1,1.2,1.3c0.5-2.1,0.7-4.4,0.8-6.7C43.6,39.4,43.1,40.7,41.5,42.4z M41.5,45.1c-1.3-1.1-1.4-1.6-1.4-1.6
			s-2.2,6.4-0.6,8.2c0,0,0.6-3.8,2.4-2.5c0.3-0.9,0.5-1.7,0.8-2.6C42.4,46,42,45.6,41.5,45.1z M40,52.2c-0.9,1.7-2.6-3.3-2.6-3.3
			c-0.3,1-0.9,4-2.6,4.2c-1.4,0.2-6.4-2.6-6.4-2.6s-1.7-0.4-2.8,1.5c0,0,2.3,4.8,9.8,6.2c0.5,0.1,1,0.2,1.5,0.1
			c2-2.1,3.6-4.9,4.8-8.2C41.1,50.3,40.7,50.9,40,52.2z M39.7,44.1c0.3-0.7,0.2-0.9,0.1-1.3c0.1,0.6-0.1,0.8-0.4,1.3
			c-1,2.2-1,3.8-1,3.8c-0.3-1.4-0.2-2.1,1.1-4.7c0.5-1.2-0.3-2.5-0.3-2.5s-0.5,0.2-0.4,0.8c0,0,0.7,0.2,0.1,1.1
			c-2.2,3.5-0.4,7.7-0.4,7.7C38.6,47.5,39,45.8,39.7,44.1z M30.9,34.6l0.1-0.2c0-0.3-0.7-0.6-1.7-0.6C29.3,33.8,30.7,33.9,30.9,34.6
			z M30.7,34.9c-0.4-0.6-1.6-0.7-1.6-0.7s0.7,0.2,0.6,0.3c-0.2,0.2-0.1,0.2-0.1,0.4c-0.1,0-0.3-0.1-0.3-0.1c0.5,0.6,1.1,0.2,1.1,0.2
			c-0.1,0-0.2,0-0.3,0c0.1,0,0.2-0.2,0.2-0.3C30.3,34.7,30.7,34.9,30.7,34.9z M26.7,33.4c0,0,0-1.1-2.1-0.7
			C24.7,32.7,26.6,32.7,26.7,33.4z M25,31.2c0,0,2.3-0.6,2.7,1.5c0.1,0.5,0.3,0.6,0.3-0.2C28,31.6,26.6,30.6,25,31.2z M28.2,37.2
			c-0.2,0.2-0.6,0.2-0.8,0c-0.1-0.1-0.2-0.6-0.8-0.4c-0.6,0.2-0.3-0.5-0.3-0.5S26,36.9,26.5,37c0.2,0,0.5,0,0.9,0.4
			C27.8,38,28.2,37.2,28.2,37.2z M14.2,44.9c1.1-0.5,2,0,3.3,1.4c3.1,3.6,5.6,3.2,5.6,3.2s-2.6,0.2-5.6-3.8
			c-1.1-1.5-2.2-1.8-3.3-1.3C14.1,44.7,14.2,44.9,14.2,44.9z M29.2,39.9c0,0-1-0.2-1.4,0.2c-0.3,0.3-0.9,1-2.1,1.3
			c0,0,2.4,1.3,3.8,4C29.4,45.5,27.9,42,29.2,39.9z M29,33c-0.9,1.4-0.8,4-0.8,4s0.1-2.1,0.8-3.5c0.7-1.4,2.5-0.5,2.5-0.5
			S29.9,31.6,29,33z M25.5,51.6c0,0-1.8-0.9-2.3-2.5c-0.3-1.1-1.3-1.5-1.3-1.5c0.3-0.1,0.3-0.2,0.3-0.2c-0.1,0.2-0.5,0-0.5,0
			s-0.2,0,0.5,0.5c0.4,0.3,0.8,0.6,1,1.2C23.4,49.7,24.3,51.4,25.5,51.6z M14.4,41.4c0.3,0.3,1.6,0.6,3.5,3.1
			c1.9,2.5,3.7,2.6,3.8,2.6c0,0-1.7-0.1-3.7-2.8c-1.6-2.2-3.4-3.3-3.4-3.3S14.4,41.1,14.4,41.4z"/>
	</g>
	<g>
		<g>
			<g>
				<g>
					<g>
						<path class="st0" d="M60.6,22.2h5.5v1.4h-3.4v2.5h3l-0.4,1.4h-2.7v3l0.2,1.2h-2v-8.1L60.6,22.2z"/>
						<path class="st0" d="M75.9,26.9c0,2.9-2,5.1-4.6,5.1c-2.8,0-4.4-2.1-4.4-4.9c0-2.9,2-5,4.6-5C74.4,22,75.9,24.1,75.9,26.9z
							 M71.4,30.6c1.5,0,2.5-1.5,2.5-3.6c0-2.1-1-3.6-2.5-3.6c-1.5,0-2.5,1.5-2.5,3.6C68.8,29,69.9,30.6,71.4,30.6z"/>
						<path class="st0" d="M85.7,30.5l0.1,1.2h-1.2l-4.8-5.4l-0.6-0.9v5.1l0.2,1.2h-1.8v-8.1l-0.2-1.5h1.4l4.7,5.5l0.5,0.9v-5
							l-0.2-1.5h1.9V30.5z"/>
						<path class="st0" d="M92,22.2c2.1,0,4.2,1.4,4.2,4.7c0,2.8-1.8,4.9-4.7,4.9h-3.2v-8.1l-0.2-1.5H92z M90.2,30.4h1.6
							c1.5,0,2.5-1.5,2.5-3.4c0-2-1.1-3.4-2.5-3.4h-1.6V30.4z"/>
						<path class="st0" d="M100.3,22.3l1.2-0.3l2.9,8l0.8,1.8h-2.1l-0.8-2.2h-3.2l-0.8,2.2h-1.7L100.3,22.3z M99.6,28.1h2.3l-1-2.8
							l-0.1-0.6l-0.1,0.6L99.6,28.1z"/>
						<path class="st0" d="M113,24.6c-0.8-0.8-1.7-1.1-2.5-1.1c-1.6,0-2.8,1.7-2.8,3.6c0,2.2,1.4,3.5,3,3.5c1,0,2.1-0.5,2.9-1.3
							l0.3,1.5c-0.9,0.8-2.3,1.3-3.5,1.3c-2.4,0-4.6-1.6-4.6-4.8c0-3,2.1-5.2,4.8-5.2c1.3,0,2.4,0.4,3.3,1.2L113,24.6z"/>
						<path class="st0" d="M117.4,30.5l0.2,1.2h-2v-8.1l-0.2-1.5h2.1V30.5z"/>
						<path class="st0" d="M128.3,26.9c0,2.9-2,5.1-4.6,5.1c-2.8,0-4.4-2.1-4.4-4.9c0-2.9,2-5,4.6-5C126.8,22,128.3,24.1,128.3,26.9
							z M123.8,30.6c1.5,0,2.5-1.5,2.5-3.6c0-2.1-1-3.6-2.5-3.6c-1.5,0-2.5,1.5-2.5,3.6C121.3,29,122.3,30.6,123.8,30.6z"/>
						<path class="st0" d="M138.1,30.5l0.1,1.2h-1.2l-4.8-5.4l-0.6-0.9v5.1l0.2,1.2H130v-8.1l-0.2-1.5h1.4l4.7,5.5l0.5,0.9v-5
							l-0.2-1.5h1.9V30.5z"/>
						<path class="st0" d="M142.7,30.5l0.2,1.2h-2v-8.1l-0.2-1.5h2.1V30.5z"/>
					</g>
				</g>
				<g>
					<g>
						<path class="st0" d="M59.7,46.7l4.4-6.9l0.6-0.7h-4.8l0.4-1.5h6.9l0.1,0.5L63,45l-0.6,0.8h5.1v1.4h-7.7L59.7,46.7z"/>
						<path class="st0" d="M77.2,42.3c0,2.9-2,5.1-4.6,5.1c-2.8,0-4.4-2.1-4.4-4.9c0-2.9,2-5,4.6-5C75.7,37.5,77.2,39.5,77.2,42.3z
							 M72.7,46c1.5,0,2.5-1.5,2.5-3.6s-1-3.6-2.5-3.6c-1.5,0-2.5,1.5-2.5,3.6S71.2,46,72.7,46z"/>
						<path class="st0" d="M80.9,46.5c0,1.8-0.9,3.5-3.1,3.5c-0.3,0-0.6,0-1.1-0.1l0.1-1.6c0,0,0.4,0.2,1,0.2c0.8,0,1.2-0.9,1.2-2
							v-7.4l-0.2-1.5h2.1V46.5z"/>
						<path class="st0" d="M85.8,37.7l1.2-0.3l2.9,8l0.8,1.8h-2.1L87.9,45h-3.2l-0.8,2.2h-1.7L85.8,37.7z M85.1,43.5h2.3l-1-2.8
							l-0.1-0.6l-0.1,0.6L85.1,43.5z"/>
						<path class="st0" d="M95.7,39.1l-0.2-1.5h5.5V39h-3.4v2.5h3l-0.4,1.4h-2.7v2.8h3.6l-0.4,1.4h-5.1V39.1z"/>
						<path class="st0" d="M108.7,47.2h-2v-8.1l-0.2-1.5h2.1V42l2.3-3.4l0.5-1h2.4l-3.3,4.5l3.6,5.1h-2.3l-3.1-4.7V46L108.7,47.2z"
							/>
						<path class="st0" d="M115.1,39.1l-0.2-1.5h5.5V39H117v2.5h3l-0.4,1.4H117v2.8h3.6l-0.4,1.4h-5.1V39.1z M116.4,36.8
							c-0.4,0-0.8-0.4-0.8-0.9c0-0.5,0.4-0.9,0.8-0.9c0.4,0,0.8,0.4,0.8,0.9C117.2,36.4,116.8,36.8,116.4,36.8z M119.1,36.8
							c-0.4,0-0.8-0.4-0.8-0.9c0-0.5,0.4-0.9,0.8-0.9c0.4,0,0.8,0.4,0.8,0.9C119.9,36.4,119.5,36.8,119.1,36.8z"/>
						<path class="st0" d="M121.8,44.8c0,0,1.2,1.2,2.7,1.2c0.8,0,1.3-0.5,1.3-1.2c0-1.6-4.1-1.7-4.1-4.5c0-1.6,1.1-2.8,2.9-2.8
							c1.2,0,2.2,0.4,2.7,0.7l-0.4,1.4c0,0-0.9-0.8-2.4-0.8c-0.5,0-1.2,0.4-1.2,1.1c0,1.7,4.1,1.7,4.1,4.6c0,1.6-1.2,2.9-3,2.9
							c-1.9,0-2.9-1-2.9-1L121.8,44.8z"/>
						<path class="st0" d="M137.7,46l0.2,1.2h-2v-4h-4.5V46l0.2,1.2h-2v-8.1l-0.2-1.5h2.1v4h4.5v-2.5l-0.2-1.5h2.1V46z"/>
						<path class="st0" d="M142.3,46l0.2,1.2h-2v-8.1l-0.2-1.5h2.1V46z"/>
						<path class="st0" d="M145.2,39.1l-0.2-1.5h2.1v8.1h3.7l-0.4,1.4h-5.2V39.1z"/>
						<path class="st0" d="M152.1,39.1l-0.2-1.5h2.1v8.1h3.7l-0.4,1.4h-5.2V39.1z"/>
						<path class="st0" d="M160.8,46l0.2,1.2h-2v-8.1l-0.2-1.5h2.1V46z"/>
						<path class="st0" d="M162.3,37.6h8v1.4h-3.1V46l0.2,1.2h-2v-8.1h-3V37.6z"/>
						<path class="st0" d="M173.9,37.6h8v1.4h-3.1V46l0.2,1.2h-2v-8.1h-3V37.6z"/>
						<path class="st0" d="M183.2,39.1l-0.2-1.5h5.5V39h-3.4v2.5h3l-0.4,1.4h-2.7v2.8h3.6l-0.4,1.4h-5.1V39.1z"/>
						<path class="st0" d="M196.1,42.2l-0.5-0.9V46l0.2,1.2H194v-8.1l-0.2-1.5h1.5l4,5.7l3.7-5.7h1.2V46l0.2,1.2h-2v-5.9l-0.4,0.9
							l-2.8,4.1L196.1,42.2z"/>
						<path class="st0" d="M208.8,46l0.2,1.2h-2v-8.1l-0.2-1.5h2.1V46z"/>
						<path class="st0" d="M216.7,47.2l-2.4-3.4h-0.7V46l0.2,1.2h-2v-8.1l-0.2-1.5h3c1.7,0,3.4,0.9,3.4,3c0,1.1-0.7,2.3-1.8,2.8
							l3,3.8H216.7z M214.2,42.4c0.9,0,1.7-0.8,1.7-1.9c0-1.1-0.8-1.7-1.7-1.7h-0.6v3.5H214.2z"/>
						<path class="st0" d="M220.4,39.1l-0.2-1.5h5.5V39h-3.4v2.5h3l-0.4,1.4h-2.7v2.8h3.6l-0.4,1.4h-5.1V39.1z M221.6,36.8
							c-0.4,0-0.8-0.4-0.8-0.9c0-0.5,0.4-0.9,0.8-0.9c0.4,0,0.8,0.4,0.8,0.9C222.4,36.4,222.1,36.8,221.6,36.8z M224.3,36.8
							c-0.4,0-0.8-0.4-0.8-0.9c0-0.5,0.4-0.9,0.8-0.9c0.4,0,0.8,0.4,0.8,0.9C225.1,36.4,224.7,36.8,224.3,36.8z"/>
					</g>
				</g>
			</g>
		</g>
		<g>
			<g>
				<path class="st0" d="M62.1,55.6c1,0,2,0.6,2,1.9c0,1.1-1,2-2.4,2h-0.5v1.6l0.1,0.7h-0.9v-5.3l-0.1-0.9H62.1z M62,58.8
					c0.7,0,1.3-0.5,1.3-1.3c0-0.8-0.6-1.2-1.3-1.2h-0.6v2.5H62z"/>
				<path class="st0" d="M68.6,59.3l-0.2,0.2h-2.6c0,0.8,0.4,1.7,1.3,1.7c0.8,0,1.5-0.6,1.5-0.6l0.1,0.7c0,0-0.7,0.7-1.8,0.7
					c-1.2,0-1.9-1.2-1.9-2.4c0-1.3,0.6-2.5,2.1-2.5C68.5,57,68.6,58.7,68.6,59.3z M66.1,56.4c-0.3,0-0.5-0.2-0.5-0.5
					c0-0.3,0.2-0.5,0.5-0.5c0.3,0,0.5,0.2,0.5,0.5C66.6,56.2,66.4,56.4,66.1,56.4z M65.9,58.9h1.9c0-0.5-0.2-1.2-0.9-1.2
					C66.3,57.7,66,58.2,65.9,58.9z M67.8,56.4c-0.3,0-0.5-0.2-0.5-0.5c0-0.3,0.2-0.5,0.5-0.5c0.3,0,0.5,0.2,0.5,0.5
					C68.3,56.2,68.1,56.4,67.8,56.4z"/>
				<path class="st0" d="M72.5,58.1c-0.2-0.1-0.3-0.2-0.5-0.2c-0.6,0-1.3,0.7-1.3,1.5v1.7l0.1,0.7H70v-3.8l-0.1-0.9l0.9-0.1v1
					c0.2-0.3,0.6-1.1,1.5-1.1c0.2,0,0.4,0.1,0.6,0.3L72.5,58.1z"/>
				<path class="st0" d="M76.5,61.8l-2-2.5v1.8l0.1,0.7h-0.9v-6.1l-0.1-0.9l0.9-0.1v4.5l1.5-1.6l0.3-0.5h1.2l-2.1,2l2.2,2.6H76.5z"
					/>
				<path class="st0" d="M79.7,61.9c-0.6,0-1.2-0.4-1.2-1.1v-2.8l-0.1-0.9l0.9-0.1v2.8c0,0.9,0.1,1.3,0.7,1.3c1,0,1.4-0.7,1.4-0.7
					v-2.4l-0.1-0.9l0.9-0.1v3.7c0,0.6,0.4,1.1,0.4,1.1l-0.9,0.1c0,0-0.3-0.4-0.3-0.8C81,61.6,80.3,61.9,79.7,61.9z"/>
				<path class="st0" d="M83.6,60.6c0,0,0.5,0.6,1.3,0.6c0.5,0,0.8-0.2,0.8-0.6c0-0.8-2.3-0.8-2.3-2.2c0-0.8,0.7-1.4,1.6-1.4
					c0.7,0,1.1,0.2,1.4,0.3l-0.2,0.8c-0.4-0.4-0.9-0.5-1.2-0.5c-0.4,0-0.7,0.2-0.7,0.6c0,1,2.3,0.8,2.3,2.3c0,0.8-0.6,1.4-1.6,1.4
					c-1,0-1.4-0.5-1.4-0.5L83.6,60.6z"/>
				<path class="st0" d="M90.8,61.8v-2.7c0-0.9-0.1-1.3-0.7-1.3c-1,0-1.4,0.7-1.4,0.7v2.6l0.1,0.7h-0.9v-6.1l-0.1-0.9l0.9-0.1v3.1
					c0.4-0.4,1.1-0.7,1.7-0.7s1.2,0.4,1.2,1.1v3l0.1,0.7H90.8z"/>
				<path class="st0" d="M94.2,57.2h1.4l-0.3,0.6h-1.2v2.8c0,0.4,0.2,0.6,0.5,0.6c0.4,0,0.8-0.2,1-0.4l0.1,0.7
					c-0.4,0.3-0.9,0.4-1.3,0.4c-0.6,0-1.1-0.4-1.1-1.4v-2.7h-0.6v-0.6h0.6v-0.8l0.9-0.1L94.2,57.2z"/>
				<path class="st0" d="M98,61.9c-0.6,0-1.2-0.4-1.2-1.1v-2.8l-0.1-0.9l0.9-0.1v2.8c0,0.9,0.1,1.3,0.7,1.3c1,0,1.4-0.7,1.4-0.7
					v-2.4l-0.1-0.9l0.9-0.1v3.7c0,0.6,0.4,1.1,0.4,1.1l-0.9,0.1c0,0-0.3-0.4-0.3-0.8C99.4,61.6,98.6,61.9,98,61.9z"/>
				<path class="st0" d="M102,57.8c0,0,0.6-0.7,1.8-0.7c0.7,0,1.4,0.3,1.4,1.2v2.5c0,0.6,0.4,1.1,0.4,1.1l-0.9,0.1
					c0,0-0.3-0.4-0.3-0.8c-0.3,0.4-0.9,0.8-1.5,0.8c-0.6,0-1.2-0.5-1.2-1.2c0-1,1.1-1.7,2.6-1.7v-0.3c0-0.8-0.3-1-0.7-1
					c-0.9,0-1.3,0.7-1.3,0.7L102,57.8z M104.4,60.7v-1c-0.2,0-1.8,0-1.8,1c0,0.3,0.2,0.6,0.7,0.6C103.8,61.3,104.2,60.9,104.4,60.7z
					"/>
				<path class="st0" d="M109.5,58.1c-0.2-0.1-0.3-0.2-0.5-0.2c-0.6,0-1.3,0.7-1.3,1.5v1.7l0.1,0.7H107v-3.8l-0.1-0.9l0.9-0.1v1
					c0.2-0.3,0.6-1.1,1.5-1.1c0.2,0,0.4,0.1,0.6,0.3L109.5,58.1z"/>
				<path class="st0" d="M112.9,60.4c0,0,0.7,0.8,1.6,0.8c0.5,0,1-0.4,1-1c0-1.2-2.7-1.3-2.7-3c0-1,0.8-1.8,1.8-1.8
					c0.7,0,1.3,0.3,1.6,0.4l-0.2,0.7c0,0-0.6-0.5-1.3-0.5c-0.4,0-0.9,0.3-0.9,0.8c0,1.4,2.7,1.2,2.7,3.1c0,1.1-0.7,1.8-1.9,1.8
					c-1.1,0-1.7-0.7-1.7-0.7C112.8,61.2,112.9,60.4,112.9,60.4z"/>
				<path class="st0" d="M120.6,61.8v-2.7c0-0.9-0.1-1.3-0.7-1.3c-1,0-1.4,0.7-1.4,0.7v2.6l0.1,0.7h-0.9v-6.1l-0.1-0.9l0.9-0.1v3.1
					c0.4-0.4,1.1-0.7,1.7-0.7s1.2,0.4,1.2,1.1v3l0.1,0.7H120.6z"/>
				<path class="st0" d="M126.4,59.3l-0.2,0.2h-2.6c0,0.8,0.4,1.7,1.3,1.7c0.8,0,1.5-0.6,1.5-0.6l0.1,0.7c0,0-0.7,0.7-1.8,0.7
					c-1.2,0-1.9-1.2-1.9-2.4c0-1.3,0.6-2.5,2.1-2.5C126.3,57,126.4,58.7,126.4,59.3z M123.9,56.4c-0.3,0-0.5-0.2-0.5-0.5
					c0-0.3,0.2-0.5,0.5-0.5c0.3,0,0.5,0.2,0.5,0.5C124.3,56.2,124.1,56.4,123.9,56.4z M123.6,58.9h1.9c0-0.5-0.2-1.2-0.9-1.2
					C124.1,57.7,123.7,58.2,123.6,58.9z M125.6,56.4c-0.3,0-0.5-0.2-0.5-0.5c0-0.3,0.2-0.5,0.5-0.5c0.3,0,0.5,0.2,0.5,0.5
					C126.1,56.2,125.9,56.4,125.6,56.4z"/>
				<path class="st0" d="M130.7,61.8v-2.7c0-0.9-0.1-1.3-0.7-1.3c-1,0-1.4,0.7-1.4,0.7v2.6l0.1,0.7h-0.9v-3.8l-0.1-0.9l0.9-0.1v0.7
					c0.4-0.4,1.1-0.7,1.7-0.7s1.2,0.4,1.2,1.1v3l0.1,0.7H130.7z"/>
				<path class="st0" d="M136.6,60.8c0,0.6,0.4,1.1,0.4,1.1l-0.9,0.1c0,0-0.2-0.3-0.3-0.7c-0.5,0.5-1,0.7-1.4,0.7
					c-0.9,0-1.7-0.8-1.7-2.3c0-1.4,0.9-2.5,2.3-2.5c0.2,0,0.5,0,0.7,0.1v-1.4l-0.1-0.9l0.9-0.1V60.8z M135.8,60.7v-2.9
					c0,0-0.5-0.1-0.9-0.1c-0.7,0-1.3,0.9-1.3,1.8c0,1.1,0.5,1.8,1.1,1.8C135.1,61.3,135.5,61.1,135.8,60.7z"/>
				<path class="st0" d="M141.7,59.3l-0.2,0.2h-2.6c0,0.8,0.4,1.7,1.3,1.7c0.8,0,1.5-0.6,1.5-0.6l0.1,0.7c0,0-0.7,0.7-1.8,0.7
					c-1.2,0-1.9-1.2-1.9-2.4c0-1.3,0.6-2.5,2.1-2.5C141.5,57,141.6,58.7,141.7,59.3z M138.9,58.9h1.9c0-0.5-0.2-1.2-0.9-1.2
					C139.3,57.7,139,58.2,138.9,58.9z"/>
				<path class="st0" d="M143.9,57.2h1.4l-0.3,0.6h-1.2v2.8c0,0.4,0.2,0.6,0.5,0.6c0.4,0,0.8-0.2,1-0.4l0.1,0.7
					c-0.4,0.3-0.9,0.4-1.3,0.4c-0.6,0-1.1-0.4-1.1-1.4v-2.7h-0.6v-0.6h0.6v-0.8l0.9-0.1L143.9,57.2z"/>
				<path class="st0" d="M146.8,55.3c0.3,0,0.5,0.2,0.5,0.5c0,0.3-0.2,0.5-0.5,0.5c-0.3,0-0.5-0.2-0.5-0.5
					C146.3,55.5,146.6,55.3,146.8,55.3z M147.3,61.1l0.1,0.7h-0.9v-3.8l-0.1-0.9l0.9-0.1V61.1z"/>
				<path class="st0" d="M149.9,57.2h1.4l-0.3,0.6h-1.2v2.8c0,0.4,0.2,0.6,0.5,0.6c0.4,0,0.8-0.2,1-0.4l0.1,0.7
					c-0.4,0.3-0.9,0.4-1.3,0.4c-0.6,0-1.1-0.4-1.1-1.4v-2.7h-0.6v-0.6h0.6v-0.8l0.9-0.1L149.9,57.2z"/>
			</g>
		</g>
	</g>
</g>
</svg>
